/* XPM */
static char *swisswatch[] = {
/* columns rows colors chars-per-pixel */
"32 32 177 2",
"   c #000000",
".  c #0B0B0F",
"X  c #0C1015",
"o  c #0E1118",
"O  c #1E0C0C",
"+  c #19191E",
"@  c #1B1D24",
"#  c #1E222A",
"$  c #2C0E0D",
"%  c #2C1918",
"&  c #361413",
"*  c #202125",
"=  c #25262B",
"-  c #2A2B2E",
";  c #242B3B",
":  c #2B2E36",
">  c #2E3034",
",  c #2E313B",
"<  c #322123",
"1  c #343536",
"2  c #343539",
"3  c #3D3C3E",
"4  c #262E43",
"5  c #353946",
"6  c #3A3C41",
"7  c #3C404E",
"8  c #3A4154",
"9  c #3F4863",
"0  c #414243",
"q  c #41454A",
"w  c #4A4A4E",
"e  c #434752",
"r  c #444954",
"t  c #44485A",
"y  c #484853",
"u  c #4A4C5C",
"i  c #505053",
"p  c #52535C",
"a  c #5E5A5F",
"s  c #4B5064",
"d  c #4D536B",
"f  c #4B5777",
"g  c #4D5876",
"h  c #505560",
"j  c #505469",
"k  c #555A65",
"l  c #5D5D64",
"z  c #5A5C6B",
"x  c #505770",
"c  c #555A71",
"v  c #535D7A",
"b  c #595E74",
"n  c #58617A",
"m  c #684443",
"M  c #70565A",
"N  c #646267",
"B  c #65656D",
"V  c #6B696E",
"C  c #616273",
"Z  c #666778",
"A  c #666B7C",
"S  c #6C6C74",
"D  c #6A6978",
"F  c #6C737F",
"G  c #747274",
"H  c #76757A",
"J  c #79747C",
"K  c #606A81",
"L  c #696D84",
"P  c #717080",
"I  c #767981",
"U  c #767C8A",
"Y  c #79778A",
"T  c #7A7A83",
"R  c #7E7C8B",
"E  c #7F8082",
"W  c #BB281C",
"Q  c #B03F37",
"!  c #887479",
"~  c #B4625D",
"^  c #BD625E",
"/  c #C32D1E",
"(  c #CC4234",
")  c #807D85",
"_  c #828385",
"`  c #83848C",
"'  c #898685",
"]  c #8B8A8C",
"[  c #838392",
"{  c #878A90",
"}  c #84899C",
"|  c #8B8B92",
" . c #8A8D9C",
".. c #938A8B",
"X. c #928F94",
"o. c #94929D",
"O. c #98959C",
"+. c #8C91A0",
"@. c #9696A2",
"#. c #979BAA",
"$. c #9A9AA3",
"%. c #9D9BA8",
"&. c #9EA1A9",
"*. c #9DA2B2",
"=. c #BC9193",
"-. c #A09CA5",
";. c #A29EAC",
":. c #AD9FA5",
">. c #A2A2A5",
",. c #A4A3AB",
"<. c #A7A8AE",
"1. c #A8A6AB",
"2. c #ABA9AC",
"3. c #ABABB2",
"4. c #A8A9B8",
"5. c #AEB1BA",
"6. c #BAA4AA",
"7. c #B0AEB3",
"8. c #B2B0B6",
"9. c #B2B2B9",
"0. c #B6B9BE",
"q. c #B8B5BB",
"w. c #B9B8BD",
"e. c #B4B6C1",
"r. c #BAB7C5",
"t. c #BCBCC3",
"y. c #BEBFC8",
"u. c #BEC0C6",
"i. c #BDC3D4",
"p. c #D69796",
"a. c #C5A1A5",
"s. c #C9A0A4",
"d. c #CAACB0",
"f. c #C6B4B6",
"g. c #C2B2BA",
"h. c #C0BEC4",
"j. c #C4C4CA",
"k. c #C9C4CD",
"l. c #C9C9CE",
"z. c #C7C7D4",
"x. c #C6C9D1",
"c. c #C9C6D2",
"v. c #CCCBD4",
"b. c #CCCDD9",
"n. c #CED1DD",
"m. c #D1CDD4",
"M. c #D3CED9",
"N. c #D3D1D6",
"B. c #D4D3DA",
"V. c #D4D8DC",
"C. c #D8D5DC",
"Z. c #DBD9DC",
"A. c #D2D4E0",
"S. c #D4D9E3",
"D. c #DCDBE1",
"F. c #DFDFE8",
"G. c #E1CCCE",
"H. c #E9C9C8",
"J. c #E3D2D4",
"K. c #E1D8DE",
"L. c #EBDADB",
"P. c #E1DDE2",
"I. c #EDDEE0",
"U. c #E2E1E5",
"Y. c #E5E5EA",
"T. c #EAE3E5",
"R. c #E8E6E9",
"E. c #EAE9ED",
"W. c #EEEDF3",
"Q. c #EFF0F6",
"!. c #F0E4E6",
"~. c #F0E5E9",
"^. c #F0EEF5",
"/. c #F1F0F6",
"(. c #F2F1F8",
"). c #FCFCFD",
"_. c None",
/* pixels */
"_._._._._._._._._._.).).).^.R.R.R.R.E.E.(.(._._._._._._._._._.).",
"_._._._._._._._.).W.E.R.2.] ) H H T | 1.m.P.W.W._._._._._._._._.",
"_._._._.)._.).(.U.1.J z Z b u s t d z B a ) 3.D.U.Y._._._._._._.",
"_.)._._._.).E.q.S z d 9 v c F z p U B D 5 c Z Y h.P.P._._._._._.",
"_._._._.).Y.$.B c 4 K i.P.W.Q.' I W.W.Y.B.E 8 b P ;.C.K._._._._.",
"_.)._.).U.X.b f n 8 &.W.(.Q.Q...! (.Q.W.Q.e.5  .L P $.M.C._._._.",
"_._.).P.O.C g } W.z.4 Y.Q.Q.!.( / p.W.W.W.2 e.E.7.+.Y ;.C._._._.",
"_._.Y.7.C v #.^.W.(.4.F.Q.(.H./ W ^ (.W.Y.#.(.(.(.8.*.R 9.m._._.",
"_.W.N.D v +.(.(.(.(.(.(.W.(.^.~ Q d.^.^.^.^.^.^.Q.(.3.e.) h.M._.",
"_.C.@.b ; $.W.W.W.W.(.W.(.(.(.K.p.^.^.^.^.^.^.^.(.(.3.y e.*.M._.",
"_.b.S v 4.k 6 N.W.W.W.W.^.^.(.~.6.E.^.^.(.^.(.(.P.w e 9.r.%.M._.",
"B.<.D r.E.W.r.W.W.W.W.W.^.^.^.!.s.^.^.^.(.^.^.(.^.3.(.Y.Y.m.r.M.",
"b.o. .r.(.W.^.W.W.W.W.W.W.^.^.I.a.W.W.^.^.^.^.^.(.(.(.(.5.U.j.M.",
"m.` @.h.Q.Q.^.^.W.W.W.W.^.^.^.I.a.' 7.^.^.^.^.^.(.W.(.W.j.l.k.M.",
"b.R 7.B.Q.W.W.E.W.W.W.W.R.G q.L.m . N ^.^.^.(.^.(.^.W.(.D.t.C.M.",
"v.| q.<.3.h.W.W.W.W.W.W.7..   % & * D.^.^.^.^.(.W.W.m.w.r.k.P.M.",
"v.O.J k a ] ^.W.W.W.W.W.V.G # O $   * G t.W.Q.Q.Q.Q.' q y S P.m.",
"v.>.9.V.(./.W.W.W.W.W.W.W.N.= < M 6 o X X - G h.(.(.^.).Z.r.I.v.",
"b.q.Z.l./.W.W././.W.Q.W.U.1 1 f.6.W.D.%.l # o . p (.(.(.P.E.P.b.",
"b.j.C.R./.W././.W./.Q.E.w > N.G.6.^.W.W.^.W.y.T @.^.^.(.P.A.D.M.",
"B.z.S.3././././.W.W./.a > l.(.J.g.(.W.W.Q.Q.^.(.(.(.(.(.1.E.M.M.",
"_.z.Z.q.N.>.- Z././.G = l./.W.W.W.W.W.W.Q.Q.^.Q.U.3 q.C.t.^.c._.",
"_.b.v.Y.0 3 t./.(.] @ j./././.W.W.W.(.(.Q.Q.(.^.(.0.2 i E.D.M._.",
"_.A.b.U.9.j././.2.+ 8.W.Q.W././.Q.(.Q.^.Q.Q.Q.(.(.(.l.4.(.b.M._.",
"_._.n.b.F.V.m.q.+ <.E.(.Q.Q././././.(./.(./.(.(.(.C.Z.Y.B.b._._.",
"_._._.b.C.N.V.> <.R.1 U.Q.(./.(./././.(.R.1 E.(.N.U.B.U.z._._._.",
"_._._.S.n.Z.N.m.t.G B (.Q.(.(.h.j./././.(.V H j.D.V.R.M.b._._._.",
"_._._._.S.v.V.U.j.# N.(.(.Q.(.E ] /.(.(.(.V.* j.U.Z.x.A.:._._._.",
"_._._._._.S.n.N.E.V.3.t.R.N.E._ ] E.V.D.v.<.N./.m.b.A._._._._._.",
"_._._._._._.A.n.v.V.E.D.E.u.&._ X.&.0.Q.Z./.C.x.b._._._._._._._.",
"_._._._._._._._.V.S.b.v.Z.U.R.U.R.E.R.Z.N.c.b.z._._._._._._._._.",
"_._._._._._._._._._.v.b.n.V.V.N.l.l.b.N.B.v._._._._._._._._._._."
};
